<?xml version="1.0" encoding="UTF-8" standalone="no"?>
<svg xmlns="http://www.w3.org/2000/svg" viewBox="0 0 512 512" width="512" height="512">
  <!-- Cricket ball background -->
  <circle cx="256" cy="256" r="240" fill="#c62828" />
  
  <!-- Cricket ball seam -->
  <path d="M256 16c-132.5 0-240 107.5-240 240s107.5 240 240 240 240-107.5 240-240S388.5 16 256 16zm0 440c-110.5 0-200-89.5-200-200S145.5 56 256 56s200 89.5 200 200-89.5 200-200 200z" fill="#b71c1c" />
  
  <!-- Cricket ball stitches -->
  <path d="M128 256c0-70.7 57.3-128 128-128 70.7 0 128 57.3 128 128 0 70.7-57.3 128-128 128-70.7 0-128-57.3-128-128z" fill="none" stroke="#ffffff" stroke-width="8" stroke-dasharray="20,15" />
  
  <!-- Hand symbol -->
  <path d="M320 220c-5.5 0-10 4.5-10 10v60c0 5.5-4.5 10-10 10s-10-4.5-10-10v-90c0-5.5-4.5-10-10-10s-10 4.5-10 10v90c0 5.5-4.5 10-10 10s-10-4.5-10-10v-90c0-5.5-4.5-10-10-10s-10 4.5-10 10v90c0 5.5-4.5 10-10 10s-10-4.5-10-10v-60c0-5.5-4.5-10-10-10s-10 4.5-10 10v60c0 27.6 22.4 50 50 50h40c27.6 0 50-22.4 50-50v-60c0-5.5-4.5-10-10-10z" fill="#ffffff" />
</svg>